<svg xmlns="http://www.w3.org/2000/svg" xmlns:xlink="http://www.w3.org/1999/xlink" version="1.1" x="0px" y="0px" viewBox="0 0 100 125" enable-background="new 0 0 100 100" xml:space="preserve"><g><path d="M91.5,31.1c-1.3-3.2-3.3-5.2-5.8-7.8c-3-3.2-7.2-6.6-11.2-8.3c-5.2-2.1-10.5-4.4-15.7-6.3c-2.7-0.9-5.4-1.4-8-1.4   c-2.6,0-5.1,0.5-7.6,1.4c-5,1.8-10.7,1.1-15.4,3.4c-2.4,1.2-4.1,3.3-5.9,5.2c-4.4,2.1-7.9,5.1-10.3,9.1c-1,1-1.9,2.1-2.6,3.3   c-2.3,3.5-4,8-4,12.2c0,4.4,0.7,7.5,3,11.1c0.2,0.4,0.7,0.7,1.2,1.1c0.5,0.7,1,1.6,1.6,2.1c0.9,0.9,1.9,1.5,3,2   c1.6,0.8,3.2,1.6,4.5,2.8c1,0.9,1.6,2.1,2.6,3c2.3,2.1,6.3,3.1,9.2,3.6c4,0.6,8.2,0.3,12.2,1c3.7,0.6,7.3,1.5,11.1,1.9   c0.3,0,0.6,0,0.8,0c1.8,0,3.4-0.5,5.1-1c2.7-0.9,5.5-1.7,8.1-2.8c0.1,0,0.1-0.1,0.2-0.1c2.7-0.7,5.1-1.6,7.4-2.6   c1.7-0.3,3.2-0.7,4.8-1.4c2.7-1.2,4.5-2.7,6.5-4.5c2.6-1.2,4.9-2.4,6.7-5C97.2,46.3,94,37.1,91.5,31.1z M24.7,49.3   c-1.9,1.2-4.6,0.5-5.9-1.6c-1.3-2.1-0.9-4.8,1.1-6c1.9-1.2,4.6-0.5,5.9,1.6C27.1,45.3,26.6,48,24.7,49.3z M37.5,25.6   c-1.3,2.4-3.9,3.5-5.8,2.5c-1.9-1-2.4-3.8-1.1-6.2c1.3-2.4,3.9-3.5,5.8-2.5C38.4,20.5,38.8,23.2,37.5,25.6z M52.4,43.8   c-0.1,2.5-2.1,4.4-4.4,4.3c-2.3-0.1-4-2.2-3.9-4.7c0.1-2.5,2.1-4.4,4.4-4.3C50.8,39.2,52.5,41.3,52.4,43.8z M65.7,30   c-1.2-2.2-0.5-4.9,1.5-6c2-1.1,4.6-0.2,5.8,2c1.2,2.2,0.5,4.9-1.5,6C69.5,33.1,66.9,32.2,65.7,30z M76.7,55.5   c-1.9,1.2-4.6,0.5-5.9-1.6c-1.3-2.1-0.9-4.8,1.1-6c1.9-1.2,4.6-0.5,5.9,1.6C79.1,51.5,78.6,54.2,76.7,55.5z"/><path d="M76.2,86.1c4.5-3.4,5.7-8.1,5.7-8.1l4.4-17.2c-1.4,1.2-2.9,2.3-4.8,3.2L76.2,86.1z"/><path d="M75.6,66c-0.7,0.3-1.4,0.6-2.1,0.9l-4.1,22.9c1.9-0.7,3.5-1.5,4.9-2.4l5.4-22.5C78.4,65.4,77.1,65.7,75.6,66z"/><path d="M68.3,68.5L68.3,68.5c-1.2,0.5-2.4,1-3.7,1.4l-2.3,21.8c1.9-0.4,3.6-0.8,5.2-1.3l4.1-22.9C70.6,67.9,69.4,68.2,68.3,68.5z"/><path d="M62.4,70.7c-0.8,0.2-1.6,0.5-2.4,0.8c-1.3,0.5-2.8,0.9-4.4,1.1l-0.5,20.1c2-0.1,3.8-0.3,5.5-0.6l2.2-21.5   C62.7,70.6,62.5,70.6,62.4,70.7z"/><path d="M47.5,71.7l0.5,21c0.9,0,1.7,0,2.7,0c1,0,1.9,0,2.9-0.1l0.5-20.1c-0.2,0-0.5,0-0.7,0C51.2,72.4,49.3,72.1,47.5,71.7z"/><path d="M45.3,71.3c-1.1-0.2-2.3-0.4-3.4-0.6c-1.2-0.2-2.5-0.3-3.8-0.4L40.4,92c1.8,0.3,3.7,0.5,5.9,0.6l-0.5-21.2   C45.6,71.4,45.5,71.3,45.3,71.3z"/><path d="M35.8,70.2c-2-0.1-4-0.2-6-0.5c-0.1,0-0.1,0-0.2,0l3.7,20.7c1.6,0.5,3.3,1,5.3,1.4l-2.2-21.5C36.2,70.2,36,70.2,35.8,70.2z   "/><path d="M22.4,67.5l4.8,19.9c1.3,0.8,2.7,1.5,4.5,2.2l-3.7-20.3C26.1,69,24.1,68.4,22.4,67.5z"/><path d="M19.4,65.6c-0.7-0.6-1.2-1.3-1.6-1.8c-0.3-0.4-0.7-0.9-1-1.2c-0.5-0.5-1.1-0.9-1.8-1.3l4.8,17.2c0,0,1.1,4.4,5.2,7.6   l-4.7-19.7C20.1,66.1,19.7,65.8,19.4,65.6z"/></g></svg>
